<svg width="200" height="200" viewBox="0 0 200 200" xmlns="http://www.w3.org/2000/svg">
  <defs>
    <linearGradient id="cdxBg" x1="0" y1="0" x2="200" y2="200" gradientUnits="userSpaceOnUse">
      <stop offset="0" stop-color="#F2A23A"/>
      <stop offset="0.55" stop-color="#E0732A"/>
      <stop offset="1" stop-color="#C7492E"/>
    </linearGradient>
  </defs>

  <!-- Squircle background -->
  <rect x="0" y="0" width="200" height="200" rx="46" fill="url(#cdxBg)"/>

  <!-- White mark, centered & slightly smaller -->
  <g transform="translate(100 100) scale(0.78) translate(-100 -100)">
    <path d="M 71 48 A 62 62 0 1 0 129 48"
          fill="none" stroke="#FFFFFF" stroke-width="18" stroke-linecap="round"/>
    <path d="M 119 22 L 152 34 L 130 62 Z" fill="#FFFFFF"/>
    <g fill="#FFFFFF" transform="rotate(-30 100 102)">
      <rect x="79"  y="54" width="10" height="46" rx="5"/>
      <rect x="95"  y="54" width="10" height="46" rx="5"/>
      <rect x="111" y="54" width="10" height="46" rx="5"/>
      <path d="M 79 92 Q 100 108 121 92 L 121 103 Q 100 118 79 103 Z"/>
      <rect x="95" y="104" width="10" height="56" rx="5"/>
    </g>
  </g>
</svg>
